Coordinates
version=1
nRows=7
nColumns=33
inDegrees=yes

Units are S.I. units (second, meters, Newtons, ...)
Angles are in degrees.

endheader
time	ground_thorax_rot_x	ground_thorax_rot_y	ground_thorax_rot_z	ground_thorax_tx	ground_thorax_ty	ground_thorax_tz	clav_prot_r	clav_elev_r	scapula_abduction_r	scapula_elevation_r	scapula_upward_rot_r	scapula_winging_r	shoulder_elv_r	plane_of_elev_r	axial_rot_r	elbow_flexion_r	pro_sup_r	wrist_flex_r	wrist_dev_r	clav_prot_l	clav_elev_l	scapula_abduction_l	scapula_elevation_l	scapula_upward_rot_l	scapula_winging_l	shoulder_elv_l	plane_of_elev_l	axial_rot_l	elbow_flexion_l	pro_sup_l	wrist_flex_l	wrist_dev_l
      6.60000000	     29.98894924	     23.19250381	     34.85418729	    -51.41306893	    823.89271755	    -45.57724364	     12.77054468	     34.43064717	     24.32458533	     45.00000000	    -45.00000000	  -1165.83231178	  -2445.77984662	     23.47858620	    179.99999979	    364.69310726	   -175.12250567	     15.09534298	     13.96526770	     -9.34178879	    -45.00000000	    -39.21240191	     45.00000000	    -45.00000000	  -3494.94065556	   1518.88733575	     25.82836133	     29.32911178	   1790.15822784	     41.18930522	     13.81759518	    -17.56656827
      6.61000000	     30.14849146	     22.94442833	     34.60035516	    -52.77313125	    826.18459523	    -45.76227830	     12.78830934	     34.52593979	     24.62377144	     45.00000000	    -45.00000000	  -1166.07940588	  -2445.86551359	     23.52368326	    179.99999979	    364.73772880	   -175.86034937	     15.16516918	     14.01282171	     -9.43782444	    -45.00000000	    -39.27749141	     45.00000000	    -45.00000000	  -3494.94367883	   1518.94778652	     25.80628736	     29.65840484	   1790.19270312	     40.80920208	     13.91190585	    -17.69799557
      6.62000000	     30.23006641	     22.79044292	     34.42039327	    -54.07887125	    828.49105228	    -45.95539976	     12.75478751	     34.41510768	     24.68507862	     45.00000000	    -45.00000000	  -1166.25330124	  -2445.82548863	     23.53865602	    179.99999979	    364.64765722	   -176.61584046	     15.23804958	     14.09029233	     -9.15878962	    -45.00000000	    -39.28144529	     45.00000000	    -45.00000000	  -3494.81933010	   1519.03798782	     26.00177545	     30.00640824	   1790.17434150	     40.47456978	     14.03299778	    -17.80975228
      6.63000000	     30.14696879	     22.85848956	     34.39560058	    -55.32523843	    830.79315224	    -46.15640305	     12.78065016	     34.23795409	     24.32673327	     45.00000000	    -45.00000000	  -1166.22210865	  -2445.61672447	     23.58257502	    179.99999979	    364.57528248	   -177.52799928	     15.19664181	     14.08628549	     -8.84112662	    -45.00000000	    -39.55844920	     45.00000000	    -45.00000000	  -3494.70167800	   1519.14009139	     26.09257381	     30.07892416	   1790.12639864	     40.12894715	     14.08382859	    -17.79378571
      6.64000000	     30.38238015	     22.55515248	     34.09631902	    -56.51704476	    833.08750596	    -46.36513994	     12.86519677	     34.46471053	     24.77131943	     45.00000000	    -45.00000000	  -1166.57274428	  -2445.79180033	     23.66664550	    179.99999979	    364.57662358	   -178.22112918	     15.28947460	     14.09514611	     -9.19811898	    -45.00000000	    -39.49612990	     45.00000000	    -45.00000000	  -3494.80675040	   1519.24094064	     25.97186757	     30.41313903	   1790.21276915	     39.83849323	     14.13394600	    -17.99037794
      6.65000000	     30.46450957	     22.44555291	     33.91877281	    -57.65345781	    835.36025689	    -46.57893433	     12.79807319	     34.30853199	     24.84057886	     45.00000000	    -45.00000000	  -1166.67788283	  -2445.76118592	     23.63011020	    179.99999979	    364.47108302	   -178.88584363	     15.35804187	     14.14483921	     -8.82305003	    -45.00000000	    -39.60777413	     45.00000000	    -45.00000000	  -3494.65041820	   1519.29970394	     26.12971818	     30.69470598	   1790.20025983	     39.60078973	     14.20726660	    -18.10649971
      6.66000000	     30.37757462	     22.48048062	     33.91240983	    -58.73784237	    837.60632490	    -46.79477224	     12.74166337	     34.10804593	     24.50261571	     45.00000000	    -45.00000000	  -1166.62609416	  -2445.56601201	     23.70862756	    179.99999979	    364.35994984	   -179.67384508	     15.34523314	     14.15311793	     -8.33841857	    -45.00000000	    -39.85409961	     45.00000000	    -45.00000000	  -3494.44432198	   1519.38578409	     26.30103490	     30.74353522	   1790.12411389	     39.36862605	     14.26727206	    -18.12677050
